# xmcd CD database file
#
# Track frame offsets:
#	150
#	14440
#	28335
#	45072
#	62410
#	79272
#	95240
#	109190
#	120525
#	134230
#	147375
#	160787
#	173845
#	187782
#	199560
#	212932
#
# Disc length: 3015 seconds
#
# Revision: 0
# Processed by: cddbd v1.5.2PL0 Copyright (c) Steve Scherf et al.
# Submitted via: CDex 1.99.1
#
DISCID=e00bc510
DTITLE=Leroy Carr - Blues Before Sunrise
DYEAR=1900
DGENRE=Blues
TTITLE0=Midnight Hour Blues
TTITLE1=Mean Mistreater Mama
TTITLE2=Hurry Down Sunshine (See What Tomorrow Brings)
TTITLE3=Corn Likker Blues
TTITLE4=Shady Lane Blues
TTITLE5=Blues Before Sunrise
TTITLE6=Take A Walk Around The Corner (Courtroom Blues)
TTITLE7=My Woman's Gone Wrong
TTITLE8=Southbound Blues
TTITLE9=Barrelhouse Woman
TTITLE10=I Believe I'll Make A Change
TTITLE11=Bobo Stomp
TTITLE12=Big Four Blues
TTITLE13=Hustler's Blues
TTITLE14=Shining Pistol
TTITLE15=It's Too Short
EXTD=
EXTT0=
EXTT1=
EXTT2=
EXTT3=
EXTT4=
EXTT5=
EXTT6=
EXTT7=
EXTT8=
EXTT9=
EXTT10=
EXTT11=
EXTT12=
EXTT13=
EXTT14=
EXTT15=
PLAYORDER=
